<!--?xml version="1.0" encoding="iso-8859-1"?-->
<!-- Generator: Adobe Illustrator 19.0.0, SVG Export Plug-In . SVG Version: 6.00 Build 0)  -->
<svg version="1.1" id="Layer_1" xmlns="http://www.w3.org/2000/svg" xmlns:xlink="http://www.w3.org/1999/xlink" x="0px" y="0px" viewBox="0 0 361.786 361.786" xml:space="preserve">
<g>
	<path stroke="#007348" stroke-width="3" stroke-linecap="round" fill="transparent" stroke-linejoin="round" d="M305.605,62.869c-15.373-18.734-37.723-31.528-63.08-34.403c-0.001,0-0.002,0-0.003,0
		c-0.443-0.065-0.895-0.096-1.355-0.096c-5.309,0-9.614,4.303-9.614,9.612v29.45c-15.624-7.523-33.14-11.738-51.642-11.738h-32.469
		c-65.828,0-119.192,53.363-119.192,119.191v80.689c0,42.922,34.919,77.842,77.842,77.842c35.942,0,65.185-29.241,65.185-65.184
		c0-30.361-24.7-55.061-55.059-55.061c-25.893,0-46.958,21.066-46.958,46.959c0,22.319,18.158,40.478,40.477,40.478
		c8.039,0,14.556-6.517,14.556-14.556c0-8.04-6.518-14.557-14.556-14.557c-6.267,0-11.367-5.099-11.367-11.366
		c0-9.84,8.006-17.847,17.847-17.847c14.308,0,25.947,11.64,25.947,25.948c0,19.89-16.183,36.072-36.073,36.072
		c-26.87,0-48.731-21.861-48.731-48.73v-80.689h244.402c30.972,0,56.081-25.11,56.081-56.082
		C357.844,89.126,334.783,64.846,305.605,62.869z" class="EifiElWu_0"></path>
	<g>
		<path stroke="#007348" stroke-width="3" fill="transparent" d="M273.618,102.036A17.275,17.275 0,1,1 308.16799999999995,102.036A17.275,17.275 0,1,1 273.618,102.036" class="EifiElWu_1"></path>
		
	</g>
	<g>
		<path stroke="#007348" stroke-width="3" fill="transparent" d="M280.43899999999996,97.35A5.011,5.011 0,1,1 290.461,97.35A5.011,5.011 0,1,1 280.43899999999996,97.35" class="EifiElWu_2"></path>
	</g>
	
</g>
<style>.EifiElWu_0{stroke-dasharray:1685 1687;stroke-dashoffset:1686;animation:EifiElWu_draw 3000ms ease-in-out 0ms forwards;}.EifiElWu_1{stroke-dasharray:109 111;stroke-dashoffset:110;animation:EifiElWu_draw 3000ms ease-in-out 0ms forwards;}.EifiElWu_2{stroke-dasharray:32 34;stroke-dashoffset:33;animation:EifiElWu_draw 3000ms ease-in-out 0ms forwards;}@keyframes EifiElWu_draw{100%{stroke-dashoffset:0;}}@keyframes EifiElWu_fade{0%{stroke-opacity:1;}94.44444444444444%{stroke-opacity:1;}100%{stroke-opacity:0;}}</style></svg>
