<?xml version="1.0" standalone="no"?>
<!DOCTYPE svg PUBLIC "-//W3C//DTD SVG 20010904//EN"
 "http://www.w3.org/TR/2001/REC-SVG-20010904/DTD/svg10.dtd">
<svg version="1.0" xmlns="http://www.w3.org/2000/svg"
 width="16.000000pt" height="16.000000pt" viewBox="0 0 16.000000 16.000000"
 preserveAspectRatio="xMidYMid meet">
<metadata>
Created by potrace 1.11, written by Peter Selinger 2001-2013
</metadata>
<g transform="translate(0.000000,16.000000) scale(0.002286,-0.002286)"
fill="#000000" stroke="none">
<path d="M4585 6433 c-16 -9 -41 -28 -53 -42 -49 -54 -51 -67 -52 -385 0 -165
-2 -301 -4 -303 -1 -2 -50 16 -107 40 -163 69 -343 121 -509 147 -41 7 -82 14
-91 15 -127 24 -1160 24 -1198 0 -4 -1 -35 -6 -70 -10 -53 -6 -147 -27 -311
-69 -134 -35 -348 -130 -520 -232 -171 -101 -293 -197 -450 -354 -160 -160
-238 -262 -373 -485 -29 -49 -118 -235 -144 -305 -111 -290 -153 -533 -157
-900 0 -76 -4 -141 -7 -145 -4 -3 -126 -6 -273 -6 l-266 0 0 -369 0 -370 273
0 273 0 1 -349 c1 -384 4 -440 39 -591 9 -36 17 -72 19 -80 14 -64 121 -311
137 -318 4 -2 8 -8 8 -13 0 -32 153 -231 253 -328 213 -209 531 -373 790 -407
23 -3 59 -9 80 -14 39 -8 335 -6 372 3 21 5 89 17 102 19 24 2 216 74 267 100
128 64 218 130 332 243 192 191 313 436 358 727 13 83 6 332 -10 359 -2 3 -6
21 -9 39 -14 80 -79 238 -134 325 -55 86 -162 207 -235 263 l-29 22 1059 0
1059 0 256 -258 255 -257 -3 -94 c-9 -294 194 -516 482 -526 138 -5 252 31
340 108 l40 35 -493 494 -493 493 806 3 805 2 0 369 0 370 -1207 0 c-663 0
-1209 4 -1213 8 -6 7 -60 190 -60 204 0 3 307 5 683 5 375 0 709 3 742 7 321
32 619 211 799 480 133 199 202 492 171 726 -49 370 -263 675 -590 839 -116
59 -296 111 -380 112 -24 0 -40 12 -80 56 -71 81 -165 170 -235 223 -19 14
-37 29 -40 32 -12 15 -211 139 -280 174 -248 126 -635 215 -725 168z m-2993
-2842 c5 -14 19 -62 32 -107 l23 -83 -121 -3 c-66 -2 -187 -2 -268 0 l-148 3
0 108 0 107 236 0 237 -1 9 -24z m1922 -79 c16 -56 27 -105 24 -108 -4 -3
-582 -7 -820 -4 l-37 0 -21 73 c-11 39 -24 85 -30 101 -5 16 -8 32 -5 35 2 4
196 7 431 6 l428 0 30 -103z m-1864 -859 c0 -3 -20 -25 -44 -47 -90 -85 -170
-215 -217 -352 -36 -106 -39 -121 -44 -254 -11 -290 121 -541 370 -701 146
-93 401 -141 509 -95 56 23 102 61 132 106 26 39 51 119 48 156 -11 160 -115
267 -273 281 -168 14 -254 134 -216 300 13 57 60 136 103 174 151 135 402 113
575 -50 59 -55 109 -139 135 -222 70 -229 -44 -537 -259 -697 -31 -23 -60 -42
-63 -42 -4 0 -25 -12 -49 -27 -23 -14 -42 -25 -42 -23 0 2 -22 -4 -50 -13
-122 -40 -296 -43 -440 -6 -279 71 -519 274 -633 534 -25 59 -47 125 -53 157
0 4 -7 33 -14 65 -10 41 -14 156 -15 410 l-1 353 271 0 c148 0 270 -3 270 -7z"/>
</g>
</svg>
